<svg version="1.0" xmlns="http://www.w3.org/2000/svg" width="800.000000" height="800.000000" viewBox="0 0 800.000000 800.000000" preserveAspectRatio="xMidYMid meet">
  <metadata>
    <rdf:RDF xmlns:rdf="http://www.w3.org/1999/02/22-rdf-syntax-ns#" xmlns:rdfs="http://www.w3.org/2000/01/rdf-schema#" xmlns:dc="http://purl.org/dc/elements/1.1/">
      <rdf:Description dc:format="image/svg+xml" dc:Label="1" dc:ContentProducer="001191330110MACRLGPT8B00000" dc:ProduceID="369279874" dc:ReservedCode1="Uuhs2VfKhrSPzNvmoFxjcqu/+lfle27Ct3T84TFV/fA=" dc:ContentPropagator="001191330110MACRLGPT8B00000" dc:PropagateID="369279874" dc:ReservedCode2="Uuhs2VfKhrSPzNvmoFxjcqu/+lfle27Ct3T84TFV/fA="/>
    </rdf:RDF>
  </metadata>
  <g transform="translate(0.000000,800.000000) scale(0.100000,-0.100000)" fill="#000000" stroke="none">
    <path d="M2525 6137 c-85 -28 -157 -94 -204 -186 -22 -41 -257 -984 -282 -1125 -15 -92 -6 -249 21 -351 12 -44 26 -84 31 -89 17 -18 9 -24 -59 -45 -138 -42 -276 -159 -350 -299 -51 -97 -62 -159 -62 -364 0 -211 9 -259 70 -385 l40 -82 -34 -63 c-59 -108 -80 -189 -80 -308 -1 -123 13 -186 64 -295 84 -182 230 -318 421 -394 158 -63 73 -61 2169 -61 1280 0 1917 4 1942 10 78 22 129 88 130 170 0 64 -26 116 -75 148 -38 25 -48 27 -179 30 l-138 4 0 231 0 232 62 12 c128 25 273 130 327 237 72 146 69 353 -10 571 -67 185 -221 373 -385 471 -17 10 -16 13 16 29 65 33 171 127 234 207 71 89 134 208 166 316 20 64 21 78 10 117 -22 78 -108 135 -182 121 -20 -3 -73 -34 -119 -67 -99 -71 -195 -119 -299 -149 -106 -31 -335 -39 -450 -16 -105 22 -252 74 -332 119 l-63 35 -43 179 c-157 645 -204 819 -236 878 -61 112 -188 186 -291 170 -58 -8 -94 -28 -327 -181 l-197 -130 -108 19 c-87 15 -138 17 -268 13 -88 -3 -191 -12 -228 -21 l-68 -15 -206 136 c-113 74 -224 144 -246 155 -50 26 -130 33 -182 16z m2997 -2132 c178 -36 364 -177 441 -335 64 -130 82 -275 42 -336 -38 -58 79 -55 -1948 -52 l-1862 3 -45 21 c-69 32 -110 72 -141 139 -28 58 -29 64 -29 223 0 181 7 212 63 270 35 37 76 62 122 73 17 4 762 7 1657 8 1407 1 1637 -1 1700 -14z m-3435 -1052 l78 -28 1713 -3 1712 -2 0 -235 0 -235 -1603 0 c-1117 0 -1621 3 -1662 11 -141 26 -268 119 -323 236 -23 50 -27 71 -27 148 0 79 13 135 30 135 3 0 40 -12 82 -27z"/>
    <path d="M2540 3844 c-83 -36 -130 -111 -130 -206 1 -227 304 -300 408 -98 34 65 28 170 -11 227 -56 81 -177 116 -267 77z"/>
  </g>
</svg>
